<?xml version="1.0" encoding="iso-8859-1"?>
<!-- Generator: Adobe Illustrator 19.0.0, SVG Export Plug-In . SVG Version: 6.00 Build 0)  -->
<svg version="1.1" id="Layer_1" xmlns="http://www.w3.org/2000/svg" xmlns:xlink="http://www.w3.org/1999/xlink" x="0px" y="0px"
	 viewBox="0 0 512 512" style="enable-background:new 0 0 512 512;" xml:space="preserve">
<g>
	<g>
		<g>
			<path d="M122.495,53.209c-18.026,11.892-28.788,31.877-28.788,53.458c0,5.891,4.777,10.668,10.667,10.668
				c5.891,0,10.668-4.777,10.668-10.668c0-14.389,7.179-27.717,19.203-35.649c4.917-3.245,6.275-9.861,3.03-14.78
				C134.03,51.322,127.412,49.966,122.495,53.209z"/>
			<path d="M157.708,42.666H157.5c-5.892,0-10.668,4.776-10.668,10.667c0,5.891,4.776,10.668,10.668,10.668h0.208
				c5.891,0,10.668-4.777,10.668-10.668C168.375,47.443,163.598,42.666,157.708,42.666z"/>
			<path d="M501.332,277.332h-42.669c-5.891,0-10.668,4.777-10.668,10.668v10.663h-21.334v-53.329
				c0-5.892-4.776-10.667-10.668-10.667h-38.474v-21.331h27.811c58.817,0,106.668-47.851,106.668-106.669
				C512,47.85,464.148,0,405.332,0c-55.216,0-100.769,42.174-106.139,95.999h-35.347C258.477,42.174,212.924,0,157.708,0
				C98.891,0,51.042,47.85,51.042,106.667c0,58.818,47.849,106.669,106.766,106.669h27.712v21.331h-41.858
				c-5.891,0-10.668,4.776-10.668,10.667v31.998h-29.61l-88.161-41.648c-3.305-1.561-7.178-1.322-10.265,0.635
				C1.871,238.275,0,241.676,0,245.331v170.668c0,3.655,1.871,7.054,4.958,9.011c1.735,1.099,3.718,1.657,5.709,1.657
				c1.552,0,3.109-0.338,4.556-1.022l88.161-41.646h29.609v64.007c0,5.891,4.777,10.668,10.667,10.668h41.858v42.659
				c0,5.891,4.776,10.668,10.668,10.668h170.666c5.892,0,10.668-4.777,10.668-10.668v-42.659h38.474
				c5.892,0,10.668-4.777,10.668-10.668v-85.336h21.334v10.661c0,5.892,4.777,10.668,10.668,10.668h42.669
				c5.892,0,10.668-4.776,10.668-10.668v-85.33C512,282.109,507.224,277.332,501.332,277.332z M90.324,366.572l-68.989,32.59
				V262.169l23.826,11.256v38.287c0,5.892,4.777,10.668,10.668,10.668s10.668-4.776,10.668-10.668v-28.207l23.828,11.256V366.572z
				 M132.993,362.663h-21.332v-63.995h21.332V362.663z M157.708,192.001c-47.051,0-85.331-38.28-85.331-85.334
				c0-47.051,38.278-85.332,85.331-85.332s85.333,38.28,85.333,85.332c0,5.891,4.776,10.668,10.667,10.668h55.624
				c5.892,0,10.667-4.777,10.667-10.668c0-47.052,38.28-85.332,85.333-85.332s85.333,38.28,85.333,85.332
				c0,47.053-38.28,85.334-85.333,85.334h-38.479H196.187H157.708z M356.185,213.336v21.331H206.854v-21.331H356.185z
				 M206.854,490.665v-31.992h149.331v31.992H206.854z M366.977,437.338c-0.042,0-0.082-0.006-0.124-0.006H196.187
				c-0.042,0-0.082,0.006-0.124,0.006h-41.735v-64.007v-85.33v-31.998h41.858h170.666h38.474v181.335H366.977z M447.996,341.334
				h-21.332v-21.335h21.332V341.334z M490.665,362.663h-21.334v-10.661v-42.67v-10.663h21.334V362.663z"/>
			<path d="M372.411,277.996h-0.256c-5.892,0-10.667,4.776-10.667,10.668c0,5.891,4.776,10.668,10.667,10.668h0.256
				c5.892,0,10.668-4.777,10.668-10.668C383.079,282.772,378.303,277.996,372.411,277.996z"/>
			<path d="M341.51,277.996h-79.325c-5.891,0-10.668,4.776-10.668,10.668c0,5.891,4.777,10.668,10.668,10.668h79.325
				c5.891,0,10.668-4.777,10.668-10.668C352.178,282.772,347.401,277.996,341.51,277.996z"/>
			<path d="M341.51,319.659h-79.325c-5.891,0-10.668,4.777-10.668,10.668c0,5.892,4.777,10.668,10.668,10.668h79.325
				c5.891,0,10.668-4.776,10.668-10.668C352.178,324.436,347.401,319.659,341.51,319.659z"/>
			<path d="M55.823,331.69c-5.892,0-10.667,4.777-10.667,10.668v0.252c0,5.891,4.776,10.667,10.667,10.667
				c5.892,0,10.668-4.777,10.668-10.667v-0.252C66.491,336.466,61.716,331.69,55.823,331.69z"/>
			<path d="M351.999,117.334c5.891,0,10.668-4.777,10.668-10.668c0-14.389,7.178-27.717,19.203-35.649
				c4.917-3.245,6.275-9.861,3.03-14.78c-3.244-4.917-9.86-6.274-14.778-3.031c-18.026,11.892-28.788,31.877-28.788,53.458
				C341.331,112.558,346.107,117.334,351.999,117.334z"/>
			<path d="M405.123,64.001h0.208c5.891,0,10.668-4.777,10.668-10.668c0-5.892-4.777-10.667-10.668-10.667h-0.208
				c-5.891,0-10.667,4.776-10.667,10.667C394.456,59.225,399.232,64.001,405.123,64.001z"/>
		</g>
	</g>
</g>
<g>
</g>
<g>
</g>
<g>
</g>
<g>
</g>
<g>
</g>
<g>
</g>
<g>
</g>
<g>
</g>
<g>
</g>
<g>
</g>
<g>
</g>
<g>
</g>
<g>
</g>
<g>
</g>
<g>
</g>
</svg>
